<?xml version="1.0" encoding="UTF-8"?><svg xmlns="http://www.w3.org/2000/svg" xmlns:xlink="http://www.w3.org/1999/xlink" fill-opacity="1" color-rendering="auto" color-interpolation="auto" stroke="black" text-rendering="auto" stroke-linecap="square" width="210" stroke-miterlimit="10" stroke-opacity="1" shape-rendering="auto" fill="black" stroke-dasharray="none" font-weight="normal" stroke-width="1" height="261" font-family="'Dialog'" font-style="normal" stroke-linejoin="miter" font-size="12" stroke-dashoffset="0" image-rendering="auto">
  <!--Generated by ySVG-->
  <defs id="genericDefs"/>
  <g>
    <defs id="defs1">
      <linearGradient x1="142" gradientUnits="userSpaceOnUse" x2="188" y1="285" y2="320" id="linearGradient1" spreadMethod="reflect">
        <stop stop-opacity="1" stop-color="rgb(232,238,247)" offset="0%"/>
        <stop stop-opacity="1" stop-color="rgb(183,201,227)" offset="100%"/>
      </linearGradient>
      <clipPath clipPathUnits="userSpaceOnUse" id="clipPath1">
        <path d="M0 0 L210 0 L210 261 L0 261 L0 0 Z"/>
      </clipPath>
      <clipPath clipPathUnits="userSpaceOnUse" id="clipPath2">
        <path d="M60 90 L270 90 L270 351 L60 351 L60 90 Z"/>
      </clipPath>
    </defs>
    <g fill="white" transform="translate(-60,-90)" stroke="white">
      <rect x="60" width="210" height="261" y="90" clip-path="url(#clipPath2)" stroke="none"/>
    </g>
    <g fill="gray" stroke="gray">
      <line y2="-29" fill="none" x1="-30" clip-path="url(#clipPath1)" x2="-30" y1="-31"/>
      <line y2="-30" fill="none" x1="-31" clip-path="url(#clipPath1)" x2="-29" y1="-30"/>
      <line y2="1" fill="none" x1="-30" clip-path="url(#clipPath1)" x2="-30" y1="-1"/>
      <line y2="0" fill="none" x1="-31" clip-path="url(#clipPath1)" x2="-29" y1="0"/>
      <line y2="31" fill="none" x1="-30" clip-path="url(#clipPath1)" x2="-30" y1="29"/>
      <line y2="30" fill="none" x1="-31" clip-path="url(#clipPath1)" x2="-29" y1="30"/>
      <line y2="61" fill="none" x1="-30" clip-path="url(#clipPath1)" x2="-30" y1="59"/>
      <line y2="60" fill="none" x1="-31" clip-path="url(#clipPath1)" x2="-29" y1="60"/>
      <line y2="91" fill="none" x1="-30" clip-path="url(#clipPath1)" x2="-30" y1="89"/>
      <line y2="90" fill="none" x1="-31" clip-path="url(#clipPath1)" x2="-29" y1="90"/>
      <line y2="121" fill="none" x1="-30" clip-path="url(#clipPath1)" x2="-30" y1="119"/>
      <line y2="120" fill="none" x1="-31" clip-path="url(#clipPath1)" x2="-29" y1="120"/>
      <line y2="151" fill="none" x1="-30" clip-path="url(#clipPath1)" x2="-30" y1="149"/>
      <line y2="150" fill="none" x1="-31" clip-path="url(#clipPath1)" x2="-29" y1="150"/>
      <line y2="181" fill="none" x1="-30" clip-path="url(#clipPath1)" x2="-30" y1="179"/>
      <line y2="180" fill="none" x1="-31" clip-path="url(#clipPath1)" x2="-29" y1="180"/>
      <line y2="211" fill="none" x1="-30" clip-path="url(#clipPath1)" x2="-30" y1="209"/>
      <line y2="210" fill="none" x1="-31" clip-path="url(#clipPath1)" x2="-29" y1="210"/>
      <line y2="241" fill="none" x1="-30" clip-path="url(#clipPath1)" x2="-30" y1="239"/>
      <line y2="240" fill="none" x1="-31" clip-path="url(#clipPath1)" x2="-29" y1="240"/>
      <line y2="271" fill="none" x1="-30" clip-path="url(#clipPath1)" x2="-30" y1="269"/>
      <line y2="270" fill="none" x1="-31" clip-path="url(#clipPath1)" x2="-29" y1="270"/>
      <line y2="-29" fill="none" x1="0" clip-path="url(#clipPath1)" x2="0" y1="-31"/>
      <line y2="-30" fill="none" x1="-1" clip-path="url(#clipPath1)" x2="1" y1="-30"/>
      <line y2="1" fill="none" x1="0" clip-path="url(#clipPath1)" x2="0" y1="-1"/>
      <line y2="0" fill="none" x1="-1" clip-path="url(#clipPath1)" x2="1" y1="0"/>
      <line y2="31" fill="none" x1="0" clip-path="url(#clipPath1)" x2="0" y1="29"/>
      <line y2="30" fill="none" x1="-1" clip-path="url(#clipPath1)" x2="1" y1="30"/>
      <line y2="61" fill="none" x1="0" clip-path="url(#clipPath1)" x2="0" y1="59"/>
      <line y2="60" fill="none" x1="-1" clip-path="url(#clipPath1)" x2="1" y1="60"/>
      <line y2="91" fill="none" x1="0" clip-path="url(#clipPath1)" x2="0" y1="89"/>
      <line y2="90" fill="none" x1="-1" clip-path="url(#clipPath1)" x2="1" y1="90"/>
      <line y2="121" fill="none" x1="0" clip-path="url(#clipPath1)" x2="0" y1="119"/>
      <line y2="120" fill="none" x1="-1" clip-path="url(#clipPath1)" x2="1" y1="120"/>
      <line y2="151" fill="none" x1="0" clip-path="url(#clipPath1)" x2="0" y1="149"/>
      <line y2="150" fill="none" x1="-1" clip-path="url(#clipPath1)" x2="1" y1="150"/>
      <line y2="181" fill="none" x1="0" clip-path="url(#clipPath1)" x2="0" y1="179"/>
      <line y2="180" fill="none" x1="-1" clip-path="url(#clipPath1)" x2="1" y1="180"/>
      <line y2="211" fill="none" x1="0" clip-path="url(#clipPath1)" x2="0" y1="209"/>
      <line y2="210" fill="none" x1="-1" clip-path="url(#clipPath1)" x2="1" y1="210"/>
      <line y2="241" fill="none" x1="0" clip-path="url(#clipPath1)" x2="0" y1="239"/>
      <line y2="240" fill="none" x1="-1" clip-path="url(#clipPath1)" x2="1" y1="240"/>
      <line y2="271" fill="none" x1="0" clip-path="url(#clipPath1)" x2="0" y1="269"/>
      <line y2="270" fill="none" x1="-1" clip-path="url(#clipPath1)" x2="1" y1="270"/>
      <line y2="-29" fill="none" x1="30" clip-path="url(#clipPath1)" x2="30" y1="-31"/>
      <line y2="-30" fill="none" x1="29" clip-path="url(#clipPath1)" x2="31" y1="-30"/>
      <line y2="1" fill="none" x1="30" clip-path="url(#clipPath1)" x2="30" y1="-1"/>
      <line y2="0" fill="none" x1="29" clip-path="url(#clipPath1)" x2="31" y1="0"/>
      <line y2="31" fill="none" x1="30" clip-path="url(#clipPath1)" x2="30" y1="29"/>
      <line y2="30" fill="none" x1="29" clip-path="url(#clipPath1)" x2="31" y1="30"/>
      <line y2="61" fill="none" x1="30" clip-path="url(#clipPath1)" x2="30" y1="59"/>
      <line y2="60" fill="none" x1="29" clip-path="url(#clipPath1)" x2="31" y1="60"/>
      <line y2="91" fill="none" x1="30" clip-path="url(#clipPath1)" x2="30" y1="89"/>
      <line y2="90" fill="none" x1="29" clip-path="url(#clipPath1)" x2="31" y1="90"/>
      <line y2="121" fill="none" x1="30" clip-path="url(#clipPath1)" x2="30" y1="119"/>
      <line y2="120" fill="none" x1="29" clip-path="url(#clipPath1)" x2="31" y1="120"/>
      <line y2="151" fill="none" x1="30" clip-path="url(#clipPath1)" x2="30" y1="149"/>
      <line y2="150" fill="none" x1="29" clip-path="url(#clipPath1)" x2="31" y1="150"/>
      <line y2="181" fill="none" x1="30" clip-path="url(#clipPath1)" x2="30" y1="179"/>
      <line y2="180" fill="none" x1="29" clip-path="url(#clipPath1)" x2="31" y1="180"/>
      <line y2="211" fill="none" x1="30" clip-path="url(#clipPath1)" x2="30" y1="209"/>
      <line y2="210" fill="none" x1="29" clip-path="url(#clipPath1)" x2="31" y1="210"/>
      <line y2="241" fill="none" x1="30" clip-path="url(#clipPath1)" x2="30" y1="239"/>
      <line y2="240" fill="none" x1="29" clip-path="url(#clipPath1)" x2="31" y1="240"/>
      <line y2="271" fill="none" x1="30" clip-path="url(#clipPath1)" x2="30" y1="269"/>
      <line y2="270" fill="none" x1="29" clip-path="url(#clipPath1)" x2="31" y1="270"/>
      <line y2="-29" fill="none" x1="60" clip-path="url(#clipPath1)" x2="60" y1="-31"/>
      <line y2="-30" fill="none" x1="59" clip-path="url(#clipPath1)" x2="61" y1="-30"/>
      <line y2="1" fill="none" x1="60" clip-path="url(#clipPath1)" x2="60" y1="-1"/>
      <line y2="0" fill="none" x1="59" clip-path="url(#clipPath1)" x2="61" y1="0"/>
      <line y2="31" fill="none" x1="60" clip-path="url(#clipPath1)" x2="60" y1="29"/>
      <line y2="30" fill="none" x1="59" clip-path="url(#clipPath1)" x2="61" y1="30"/>
      <line y2="61" fill="none" x1="60" clip-path="url(#clipPath1)" x2="60" y1="59"/>
      <line y2="60" fill="none" x1="59" clip-path="url(#clipPath1)" x2="61" y1="60"/>
      <line y2="91" fill="none" x1="60" clip-path="url(#clipPath1)" x2="60" y1="89"/>
      <line y2="90" fill="none" x1="59" clip-path="url(#clipPath1)" x2="61" y1="90"/>
      <line y2="121" fill="none" x1="60" clip-path="url(#clipPath1)" x2="60" y1="119"/>
      <line y2="120" fill="none" x1="59" clip-path="url(#clipPath1)" x2="61" y1="120"/>
      <line y2="151" fill="none" x1="60" clip-path="url(#clipPath1)" x2="60" y1="149"/>
      <line y2="150" fill="none" x1="59" clip-path="url(#clipPath1)" x2="61" y1="150"/>
      <line y2="181" fill="none" x1="60" clip-path="url(#clipPath1)" x2="60" y1="179"/>
      <line y2="180" fill="none" x1="59" clip-path="url(#clipPath1)" x2="61" y1="180"/>
      <line y2="211" fill="none" x1="60" clip-path="url(#clipPath1)" x2="60" y1="209"/>
      <line y2="210" fill="none" x1="59" clip-path="url(#clipPath1)" x2="61" y1="210"/>
      <line y2="241" fill="none" x1="60" clip-path="url(#clipPath1)" x2="60" y1="239"/>
      <line y2="240" fill="none" x1="59" clip-path="url(#clipPath1)" x2="61" y1="240"/>
      <line y2="271" fill="none" x1="60" clip-path="url(#clipPath1)" x2="60" y1="269"/>
      <line y2="270" fill="none" x1="59" clip-path="url(#clipPath1)" x2="61" y1="270"/>
      <line y2="-29" fill="none" x1="90" clip-path="url(#clipPath1)" x2="90" y1="-31"/>
      <line y2="-30" fill="none" x1="89" clip-path="url(#clipPath1)" x2="91" y1="-30"/>
      <line y2="1" fill="none" x1="90" clip-path="url(#clipPath1)" x2="90" y1="-1"/>
      <line y2="0" fill="none" x1="89" clip-path="url(#clipPath1)" x2="91" y1="0"/>
      <line y2="31" fill="none" x1="90" clip-path="url(#clipPath1)" x2="90" y1="29"/>
      <line y2="30" fill="none" x1="89" clip-path="url(#clipPath1)" x2="91" y1="30"/>
      <line y2="61" fill="none" x1="90" clip-path="url(#clipPath1)" x2="90" y1="59"/>
      <line y2="60" fill="none" x1="89" clip-path="url(#clipPath1)" x2="91" y1="60"/>
      <line y2="91" fill="none" x1="90" clip-path="url(#clipPath1)" x2="90" y1="89"/>
      <line y2="90" fill="none" x1="89" clip-path="url(#clipPath1)" x2="91" y1="90"/>
      <line y2="121" fill="none" x1="90" clip-path="url(#clipPath1)" x2="90" y1="119"/>
      <line y2="120" fill="none" x1="89" clip-path="url(#clipPath1)" x2="91" y1="120"/>
      <line y2="151" fill="none" x1="90" clip-path="url(#clipPath1)" x2="90" y1="149"/>
      <line y2="150" fill="none" x1="89" clip-path="url(#clipPath1)" x2="91" y1="150"/>
      <line y2="181" fill="none" x1="90" clip-path="url(#clipPath1)" x2="90" y1="179"/>
      <line y2="180" fill="none" x1="89" clip-path="url(#clipPath1)" x2="91" y1="180"/>
      <line y2="211" fill="none" x1="90" clip-path="url(#clipPath1)" x2="90" y1="209"/>
      <line y2="210" fill="none" x1="89" clip-path="url(#clipPath1)" x2="91" y1="210"/>
      <line y2="241" fill="none" x1="90" clip-path="url(#clipPath1)" x2="90" y1="239"/>
      <line y2="240" fill="none" x1="89" clip-path="url(#clipPath1)" x2="91" y1="240"/>
      <line y2="271" fill="none" x1="90" clip-path="url(#clipPath1)" x2="90" y1="269"/>
      <line y2="270" fill="none" x1="89" clip-path="url(#clipPath1)" x2="91" y1="270"/>
      <line y2="-29" fill="none" x1="120" clip-path="url(#clipPath1)" x2="120" y1="-31"/>
      <line y2="-30" fill="none" x1="119" clip-path="url(#clipPath1)" x2="121" y1="-30"/>
      <line y2="1" fill="none" x1="120" clip-path="url(#clipPath1)" x2="120" y1="-1"/>
      <line y2="0" fill="none" x1="119" clip-path="url(#clipPath1)" x2="121" y1="0"/>
      <line y2="31" fill="none" x1="120" clip-path="url(#clipPath1)" x2="120" y1="29"/>
      <line y2="30" fill="none" x1="119" clip-path="url(#clipPath1)" x2="121" y1="30"/>
      <line y2="61" fill="none" x1="120" clip-path="url(#clipPath1)" x2="120" y1="59"/>
      <line y2="60" fill="none" x1="119" clip-path="url(#clipPath1)" x2="121" y1="60"/>
      <line y2="91" fill="none" x1="120" clip-path="url(#clipPath1)" x2="120" y1="89"/>
      <line y2="90" fill="none" x1="119" clip-path="url(#clipPath1)" x2="121" y1="90"/>
      <line y2="121" fill="none" x1="120" clip-path="url(#clipPath1)" x2="120" y1="119"/>
      <line y2="120" fill="none" x1="119" clip-path="url(#clipPath1)" x2="121" y1="120"/>
      <line y2="151" fill="none" x1="120" clip-path="url(#clipPath1)" x2="120" y1="149"/>
      <line y2="150" fill="none" x1="119" clip-path="url(#clipPath1)" x2="121" y1="150"/>
      <line y2="181" fill="none" x1="120" clip-path="url(#clipPath1)" x2="120" y1="179"/>
      <line y2="180" fill="none" x1="119" clip-path="url(#clipPath1)" x2="121" y1="180"/>
      <line y2="211" fill="none" x1="120" clip-path="url(#clipPath1)" x2="120" y1="209"/>
      <line y2="210" fill="none" x1="119" clip-path="url(#clipPath1)" x2="121" y1="210"/>
      <line y2="241" fill="none" x1="120" clip-path="url(#clipPath1)" x2="120" y1="239"/>
      <line y2="240" fill="none" x1="119" clip-path="url(#clipPath1)" x2="121" y1="240"/>
      <line y2="271" fill="none" x1="120" clip-path="url(#clipPath1)" x2="120" y1="269"/>
      <line y2="270" fill="none" x1="119" clip-path="url(#clipPath1)" x2="121" y1="270"/>
      <line y2="-29" fill="none" x1="150" clip-path="url(#clipPath1)" x2="150" y1="-31"/>
      <line y2="-30" fill="none" x1="149" clip-path="url(#clipPath1)" x2="151" y1="-30"/>
      <line y2="1" fill="none" x1="150" clip-path="url(#clipPath1)" x2="150" y1="-1"/>
      <line y2="0" fill="none" x1="149" clip-path="url(#clipPath1)" x2="151" y1="0"/>
      <line y2="31" fill="none" x1="150" clip-path="url(#clipPath1)" x2="150" y1="29"/>
      <line y2="30" fill="none" x1="149" clip-path="url(#clipPath1)" x2="151" y1="30"/>
      <line y2="61" fill="none" x1="150" clip-path="url(#clipPath1)" x2="150" y1="59"/>
      <line y2="60" fill="none" x1="149" clip-path="url(#clipPath1)" x2="151" y1="60"/>
      <line y2="91" fill="none" x1="150" clip-path="url(#clipPath1)" x2="150" y1="89"/>
      <line y2="90" fill="none" x1="149" clip-path="url(#clipPath1)" x2="151" y1="90"/>
      <line y2="121" fill="none" x1="150" clip-path="url(#clipPath1)" x2="150" y1="119"/>
      <line y2="120" fill="none" x1="149" clip-path="url(#clipPath1)" x2="151" y1="120"/>
      <line y2="151" fill="none" x1="150" clip-path="url(#clipPath1)" x2="150" y1="149"/>
      <line y2="150" fill="none" x1="149" clip-path="url(#clipPath1)" x2="151" y1="150"/>
      <line y2="181" fill="none" x1="150" clip-path="url(#clipPath1)" x2="150" y1="179"/>
      <line y2="180" fill="none" x1="149" clip-path="url(#clipPath1)" x2="151" y1="180"/>
      <line y2="211" fill="none" x1="150" clip-path="url(#clipPath1)" x2="150" y1="209"/>
      <line y2="210" fill="none" x1="149" clip-path="url(#clipPath1)" x2="151" y1="210"/>
      <line y2="241" fill="none" x1="150" clip-path="url(#clipPath1)" x2="150" y1="239"/>
      <line y2="240" fill="none" x1="149" clip-path="url(#clipPath1)" x2="151" y1="240"/>
      <line y2="271" fill="none" x1="150" clip-path="url(#clipPath1)" x2="150" y1="269"/>
      <line y2="270" fill="none" x1="149" clip-path="url(#clipPath1)" x2="151" y1="270"/>
      <line y2="-29" fill="none" x1="180" clip-path="url(#clipPath1)" x2="180" y1="-31"/>
      <line y2="-30" fill="none" x1="179" clip-path="url(#clipPath1)" x2="181" y1="-30"/>
      <line y2="1" fill="none" x1="180" clip-path="url(#clipPath1)" x2="180" y1="-1"/>
      <line y2="0" fill="none" x1="179" clip-path="url(#clipPath1)" x2="181" y1="0"/>
      <line y2="31" fill="none" x1="180" clip-path="url(#clipPath1)" x2="180" y1="29"/>
      <line y2="30" fill="none" x1="179" clip-path="url(#clipPath1)" x2="181" y1="30"/>
      <line y2="61" fill="none" x1="180" clip-path="url(#clipPath1)" x2="180" y1="59"/>
      <line y2="60" fill="none" x1="179" clip-path="url(#clipPath1)" x2="181" y1="60"/>
      <line y2="91" fill="none" x1="180" clip-path="url(#clipPath1)" x2="180" y1="89"/>
      <line y2="90" fill="none" x1="179" clip-path="url(#clipPath1)" x2="181" y1="90"/>
      <line y2="121" fill="none" x1="180" clip-path="url(#clipPath1)" x2="180" y1="119"/>
      <line y2="120" fill="none" x1="179" clip-path="url(#clipPath1)" x2="181" y1="120"/>
      <line y2="151" fill="none" x1="180" clip-path="url(#clipPath1)" x2="180" y1="149"/>
      <line y2="150" fill="none" x1="179" clip-path="url(#clipPath1)" x2="181" y1="150"/>
      <line y2="181" fill="none" x1="180" clip-path="url(#clipPath1)" x2="180" y1="179"/>
      <line y2="180" fill="none" x1="179" clip-path="url(#clipPath1)" x2="181" y1="180"/>
      <line y2="211" fill="none" x1="180" clip-path="url(#clipPath1)" x2="180" y1="209"/>
      <line y2="210" fill="none" x1="179" clip-path="url(#clipPath1)" x2="181" y1="210"/>
      <line y2="241" fill="none" x1="180" clip-path="url(#clipPath1)" x2="180" y1="239"/>
      <line y2="240" fill="none" x1="179" clip-path="url(#clipPath1)" x2="181" y1="240"/>
      <line y2="271" fill="none" x1="180" clip-path="url(#clipPath1)" x2="180" y1="269"/>
      <line y2="270" fill="none" x1="179" clip-path="url(#clipPath1)" x2="181" y1="270"/>
      <line y2="-29" fill="none" x1="210" clip-path="url(#clipPath1)" x2="210" y1="-31"/>
      <line y2="-30" fill="none" x1="209" clip-path="url(#clipPath1)" x2="211" y1="-30"/>
      <line y2="1" fill="none" x1="210" clip-path="url(#clipPath1)" x2="210" y1="-1"/>
      <line y2="0" fill="none" x1="209" clip-path="url(#clipPath1)" x2="211" y1="0"/>
      <line y2="31" fill="none" x1="210" clip-path="url(#clipPath1)" x2="210" y1="29"/>
      <line y2="30" fill="none" x1="209" clip-path="url(#clipPath1)" x2="211" y1="30"/>
      <line y2="61" fill="none" x1="210" clip-path="url(#clipPath1)" x2="210" y1="59"/>
      <line y2="60" fill="none" x1="209" clip-path="url(#clipPath1)" x2="211" y1="60"/>
      <line y2="91" fill="none" x1="210" clip-path="url(#clipPath1)" x2="210" y1="89"/>
      <line y2="90" fill="none" x1="209" clip-path="url(#clipPath1)" x2="211" y1="90"/>
      <line y2="121" fill="none" x1="210" clip-path="url(#clipPath1)" x2="210" y1="119"/>
      <line y2="120" fill="none" x1="209" clip-path="url(#clipPath1)" x2="211" y1="120"/>
      <line y2="151" fill="none" x1="210" clip-path="url(#clipPath1)" x2="210" y1="149"/>
      <line y2="150" fill="none" x1="209" clip-path="url(#clipPath1)" x2="211" y1="150"/>
      <line y2="181" fill="none" x1="210" clip-path="url(#clipPath1)" x2="210" y1="179"/>
      <line y2="180" fill="none" x1="209" clip-path="url(#clipPath1)" x2="211" y1="180"/>
      <line y2="211" fill="none" x1="210" clip-path="url(#clipPath1)" x2="210" y1="209"/>
      <line y2="210" fill="none" x1="209" clip-path="url(#clipPath1)" x2="211" y1="210"/>
      <line y2="241" fill="none" x1="210" clip-path="url(#clipPath1)" x2="210" y1="239"/>
      <line y2="240" fill="none" x1="209" clip-path="url(#clipPath1)" x2="211" y1="240"/>
      <line y2="271" fill="none" x1="210" clip-path="url(#clipPath1)" x2="210" y1="269"/>
      <line y2="270" fill="none" x1="209" clip-path="url(#clipPath1)" x2="211" y1="270"/>
      <line y2="-29" fill="none" x1="240" clip-path="url(#clipPath1)" x2="240" y1="-31"/>
      <line y2="-30" fill="none" x1="239" clip-path="url(#clipPath1)" x2="241" y1="-30"/>
      <line y2="1" fill="none" x1="240" clip-path="url(#clipPath1)" x2="240" y1="-1"/>
      <line y2="0" fill="none" x1="239" clip-path="url(#clipPath1)" x2="241" y1="0"/>
      <line y2="31" fill="none" x1="240" clip-path="url(#clipPath1)" x2="240" y1="29"/>
      <line y2="30" fill="none" x1="239" clip-path="url(#clipPath1)" x2="241" y1="30"/>
      <line y2="61" fill="none" x1="240" clip-path="url(#clipPath1)" x2="240" y1="59"/>
      <line y2="60" fill="none" x1="239" clip-path="url(#clipPath1)" x2="241" y1="60"/>
      <line y2="91" fill="none" x1="240" clip-path="url(#clipPath1)" x2="240" y1="89"/>
      <line y2="90" fill="none" x1="239" clip-path="url(#clipPath1)" x2="241" y1="90"/>
      <line y2="121" fill="none" x1="240" clip-path="url(#clipPath1)" x2="240" y1="119"/>
      <line y2="120" fill="none" x1="239" clip-path="url(#clipPath1)" x2="241" y1="120"/>
      <line y2="151" fill="none" x1="240" clip-path="url(#clipPath1)" x2="240" y1="149"/>
      <line y2="150" fill="none" x1="239" clip-path="url(#clipPath1)" x2="241" y1="150"/>
      <line y2="181" fill="none" x1="240" clip-path="url(#clipPath1)" x2="240" y1="179"/>
      <line y2="180" fill="none" x1="239" clip-path="url(#clipPath1)" x2="241" y1="180"/>
      <line y2="211" fill="none" x1="240" clip-path="url(#clipPath1)" x2="240" y1="209"/>
      <line y2="210" fill="none" x1="239" clip-path="url(#clipPath1)" x2="241" y1="210"/>
      <line y2="241" fill="none" x1="240" clip-path="url(#clipPath1)" x2="240" y1="239"/>
      <line y2="240" fill="none" x1="239" clip-path="url(#clipPath1)" x2="241" y1="240"/>
      <line y2="271" fill="none" x1="240" clip-path="url(#clipPath1)" x2="240" y1="269"/>
      <line y2="270" fill="none" x1="239" clip-path="url(#clipPath1)" x2="241" y1="270"/>
    </g>
    <g fill="url(#linearGradient1)" transform="matrix(1,0,0,1,-60,-90)" stroke="url(#linearGradient1)">
      <path d="M142 292 C143.38 285 186.62 285 188 292 L188 313 C186.62 320 143.38 320 142 313 Z" clip-path="url(#clipPath2)" stroke="none"/>
    </g>
    <g stroke-linecap="butt" transform="matrix(1,0,0,1,-60,-90)" stroke-miterlimit="1.45">
      <path fill="none" d="M142 292 C143.38 285 186.62 285 188 292 L188 313 C186.62 320 143.38 320 142 313 Z" clip-path="url(#clipPath2)"/>
      <path fill="none" d="M188 292 C186.62 299 143.38 299 142 292" clip-path="url(#clipPath2)"/>
      <text x="132.8262" xml:space="preserve" y="330.6543" font-family="sans-serif" clip-path="url(#clipPath2)" stroke="none">Repository</text>
    </g>
    <g stroke-linecap="butt" transform="matrix(1,0,0,1,-60,-90)" stroke-miterlimit="1.45">
      <path fill="none" d="M105 120 L217 120" clip-path="url(#clipPath2)"/>
    </g>
    <g stroke-linecap="butt" transform="matrix(1,0,0,1,-60,-90)" stroke-miterlimit="1.45">
      <path d="M225 120 L213 115 L216 120 L213 125 Z" clip-path="url(#clipPath2)" stroke="none"/>
      <text x="134.9004" xml:space="preserve" y="154.1543" font-family="sans-serif" clip-path="url(#clipPath2)" stroke="none">Async call</text>
      <path fill="none" d="M105 180 L218 180" clip-path="url(#clipPath2)"/>
      <path d="M225 180 L218 185 L211 180 L218 175 Z" clip-path="url(#clipPath2)" stroke="none"/>
      <text x="127.5352" xml:space="preserve" y="214.1543" font-family="sans-serif" clip-path="url(#clipPath2)" stroke="none">Call - Return</text>
      <path fill="none" d="M105 240 L218 240" clip-path="url(#clipPath2)"/>
      <path fill="white" d="M225 240 L218 245 L211 240 L218 235 Z" clip-path="url(#clipPath2)" stroke="none"/>
      <path fill="none" d="M225 240 L218 245 L211 240 L218 235 Z" clip-path="url(#clipPath2)"/>
      <text x="121.9746" xml:space="preserve" y="274.1543" font-family="sans-serif" clip-path="url(#clipPath2)" stroke="none">Client - Server</text>
      <path fill="none" stroke-dasharray="0,4" d="M105 302.5 L134.002 302.5" stroke-dashoffset="2" clip-path="url(#clipPath2)" stroke-linecap="round"/>
      <path stroke-dasharray="0,4" d="M142.002 302.5 L130.002 297.5 L133.002 302.5 L130.002 307.5 Z" stroke-dashoffset="2" clip-path="url(#clipPath2)" stroke-linecap="round" stroke="none"/>
      <path fill="none" stroke-dasharray="0,4" d="M188.0347 302.5 L217 302.5" stroke-dashoffset="2" clip-path="url(#clipPath2)" stroke-linecap="round"/>
      <path stroke-dasharray="0,4" d="M225 302.5 L213 297.5 L216 302.5 L213 307.5 Z" stroke-dashoffset="2" clip-path="url(#clipPath2)" stroke-linecap="round" stroke="none"/>
    </g>
  </g>
</svg>
